<?xml version="1.0" encoding="utf-8" standalone="no"?>
<!DOCTYPE svg PUBLIC "-//W3C//DTD SVG 1.1//EN"
  "http://www.w3.org/Graphics/SVG/1.1/DTD/svg11.dtd">
<svg xmlns:xlink="http://www.w3.org/1999/xlink" width="436.335585pt" height="255.610606pt" viewBox="0 0 436.335585 255.610606" xmlns="http://www.w3.org/2000/svg" version="1.1">
 <metadata>
  <rdf:RDF xmlns:dc="http://purl.org/dc/elements/1.1/" xmlns:cc="http://creativecommons.org/ns#" xmlns:rdf="http://www.w3.org/1999/02/22-rdf-syntax-ns#">
   <cc:Work>
    <dc:type rdf:resource="http://purl.org/dc/dcmitype/StillImage"/>
    <dc:date>2026-02-01T22:25:50.422113</dc:date>
    <dc:format>image/svg+xml</dc:format>
    <dc:creator>
     <cc:Agent>
      <dc:title>Matplotlib v3.10.8, https://matplotlib.org/</dc:title>
     </cc:Agent>
    </dc:creator>
   </cc:Work>
  </rdf:RDF>
 </metadata>
 <defs>
  <style type="text/css">*{stroke-linejoin: round; stroke-linecap: butt}</style>
 </defs>
 <g id="figure_1">
  <g id="patch_1">
   <path d="M 0 255.610606 
L 436.335585 255.610606 
L 436.335585 0 
L 0 0 
L 0 255.610606 
z
" style="fill: none; opacity: 0"/>
  </g>
  <g id="axes_1">
   <g id="patch_2">
    <path d="M 5.6 250.010606 
L 428.512303 250.010606 
L 428.512303 4.27954 
L 5.6 4.27954 
L 5.6 250.010606 
z
" style="fill: none; opacity: 0"/>
   </g>
   <g id="FillBetweenPolyCollection_1">
    <defs>
     <path id="m520aff92d3" d="M 32.032019 -15.429243 
L 32.032019 -15.429243 
L 84.896057 -35.087728 
L 137.760095 -54.746213 
L 190.624133 -74.404699 
L 243.488171 -94.063184 
L 296.352208 -113.721669 
L 349.216246 -133.380155 
L 402.080284 -133.380155 
L 402.080284 -15.429243 
L 402.080284 -15.429243 
L 349.216246 -15.429243 
L 296.352208 -15.429243 
L 243.488171 -15.429243 
L 190.624133 -15.429243 
L 137.760095 -15.429243 
L 84.896057 -15.429243 
L 32.032019 -15.429243 
z
" style="stroke: #808080; stroke-opacity: 0.3"/>
    </defs>
    <g clip-path="url(#pab21607303)">
     <use xlink:href="#m520aff92d3" x="0" y="255.610606" style="fill: #808080; fill-opacity: 0.3; stroke: #808080; stroke-opacity: 0.3"/>
    </g>
   </g>
   <g id="matplotlib.axis_1"/>
   <g id="matplotlib.axis_2"/>
   <g id="line2d_1">
    <path d="M 32.032019 240.181363 
L 84.896057 220.522878 
L 137.760095 200.864393 
L 190.624133 181.205907 
L 243.488171 161.547422 
L 296.352208 141.888937 
L 349.216246 122.230451 
L 402.080284 122.230451 
" clip-path="url(#pab21607303)" style="fill: none; stroke: #808080; stroke-width: 1.2; stroke-linecap: square"/>
   </g>
   <g id="line2d_2">
    <path d="M 32.032019 161.547422 
L 84.896057 43.59651 
L 137.760095 82.913481 
L 190.624133 141.888937 
L 243.488171 63.254995 
L 296.352208 102.571966 
L 349.216246 82.913481 
L 402.080284 102.571966 
" clip-path="url(#pab21607303)" style="fill: none; stroke: #2563eb; stroke-width: 2; stroke-linecap: square"/>
    <defs>
     <path id="m0512453419" d="M 0 2.5 
C 0.663008 2.5 1.29895 2.236584 1.767767 1.767767 
C 2.236584 1.29895 2.5 0.663008 2.5 0 
C 2.5 -0.663008 2.236584 -1.29895 1.767767 -1.767767 
C 1.29895 -2.236584 0.663008 -2.5 0 -2.5 
C -0.663008 -2.5 -1.29895 -2.236584 -1.767767 -1.767767 
C -2.236584 -1.29895 -2.5 -0.663008 -2.5 0 
C -2.5 0.663008 -2.236584 1.29895 -1.767767 1.767767 
C -1.29895 2.236584 -0.663008 2.5 0 2.5 
z
" style="stroke: #2563eb"/>
    </defs>
    <g clip-path="url(#pab21607303)">
     <use xlink:href="#m0512453419" x="32.032019" y="161.547422" style="fill: #2563eb; stroke: #2563eb"/>
     <use xlink:href="#m0512453419" x="84.896057" y="43.59651" style="fill: #2563eb; stroke: #2563eb"/>
     <use xlink:href="#m0512453419" x="137.760095" y="82.913481" style="fill: #2563eb; stroke: #2563eb"/>
     <use xlink:href="#m0512453419" x="190.624133" y="141.888937" style="fill: #2563eb; stroke: #2563eb"/>
     <use xlink:href="#m0512453419" x="243.488171" y="63.254995" style="fill: #2563eb; stroke: #2563eb"/>
     <use xlink:href="#m0512453419" x="296.352208" y="102.571966" style="fill: #2563eb; stroke: #2563eb"/>
     <use xlink:href="#m0512453419" x="349.216246" y="82.913481" style="fill: #2563eb; stroke: #2563eb"/>
     <use xlink:href="#m0512453419" x="402.080284" y="102.571966" style="fill: #2563eb; stroke: #2563eb"/>
    </g>
   </g>
   <g id="line2d_3">
    <path d="M 32.032019 220.522878 
L 84.896057 102.571966 
L 137.760095 122.230451 
L 190.624133 102.571966 
L 243.488171 141.888937 
L 296.352208 102.571966 
L 349.216246 102.571966 
L 402.080284 102.571966 
" clip-path="url(#pab21607303)" style="fill: none; stroke: #dc2626; stroke-width: 2; stroke-linecap: square"/>
    <defs>
     <path id="m96b5610091" d="M -2.5 2.5 
L 2.5 2.5 
L 2.5 -2.5 
L -2.5 -2.5 
z
" style="stroke: #dc2626; stroke-linejoin: miter"/>
    </defs>
    <g clip-path="url(#pab21607303)">
     <use xlink:href="#m96b5610091" x="32.032019" y="220.522878" style="fill: #dc2626; stroke: #dc2626; stroke-linejoin: miter"/>
     <use xlink:href="#m96b5610091" x="84.896057" y="102.571966" style="fill: #dc2626; stroke: #dc2626; stroke-linejoin: miter"/>
     <use xlink:href="#m96b5610091" x="137.760095" y="122.230451" style="fill: #dc2626; stroke: #dc2626; stroke-linejoin: miter"/>
     <use xlink:href="#m96b5610091" x="190.624133" y="102.571966" style="fill: #dc2626; stroke: #dc2626; stroke-linejoin: miter"/>
     <use xlink:href="#m96b5610091" x="243.488171" y="141.888937" style="fill: #dc2626; stroke: #dc2626; stroke-linejoin: miter"/>
     <use xlink:href="#m96b5610091" x="296.352208" y="102.571966" style="fill: #dc2626; stroke: #dc2626; stroke-linejoin: miter"/>
     <use xlink:href="#m96b5610091" x="349.216246" y="102.571966" style="fill: #dc2626; stroke: #dc2626; stroke-linejoin: miter"/>
     <use xlink:href="#m96b5610091" x="402.080284" y="102.571966" style="fill: #dc2626; stroke: #dc2626; stroke-linejoin: miter"/>
    </g>
   </g>
   <g id="patch_3">
    <path d="M 5.6 250.010606 
L 5.6 4.27954 
" style="fill: none; stroke: #333333; stroke-width: 2; stroke-linejoin: miter; stroke-linecap: square"/>
   </g>
   <g id="patch_4">
    <path d="M 5.6 250.010606 
L 428.512303 250.010606 
" style="fill: none; stroke: #333333; stroke-width: 2; stroke-linejoin: miter; stroke-linecap: square"/>
   </g>
   <g id="patch_5">
    <path d="M 422.057109 250.010606 
Q 428.514381 250.010606 432.735585 250.010606 
" style="fill: none; stroke: #333333; stroke-width: 2; stroke-linecap: round"/>
    <path d="M 428.735585 248.010606 
L 432.735585 250.010606 
L 428.735585 252.010606 
" style="fill: none; stroke: #333333; stroke-width: 2; stroke-linecap: round"/>
   </g>
   <g id="patch_6">
    <path d="M 5.6 7.192796 
Q 5.6 4.278364 5.6 3.6 
" style="fill: none; stroke: #333333; stroke-width: 2; stroke-linecap: round"/>
    <path d="M 3.6 7.6 
L 5.6 3.6 
L 7.6 7.6 
" style="fill: none; stroke: #333333; stroke-width: 2; stroke-linecap: round"/>
   </g>
  </g>
 </g>
 <defs>
  <clipPath id="pab21607303">
   <rect x="5.6" y="4.27954" width="422.912303" height="245.731067"/>
  </clipPath>
 </defs>
</svg>
